<?xml version="1.0" encoding="UTF-8" standalone="no"?>
<svg width="17px" height="17px" viewBox="0 0 17 17" version="1.1" xmlns="http://www.w3.org/2000/svg" xmlns:xlink="http://www.w3.org/1999/xlink">
    <!-- Generator: Sketch 43.1 (39012) - http://www.bohemiancoding.com/sketch -->
    <title>查询</title>
    <desc>Created with Sketch.</desc>
    <defs></defs>
    <g id="Page-1" stroke="none" stroke-width="1" fill="none" fill-rule="evenodd">
        <g id="列表详情页" transform="translate(-46.000000, -449.000000)" fill="#FFFFFF">
            <path d="M61.9419111,463.343118 L58.6282345,460.028878 C60.6052966,457.299502 60.3546813,453.48397 57.9042282,451.033094 C56.595453,449.724125 54.8411464,449 52.9754621,449 C51.1097778,449 49.3554713,449.724125 48.0466961,451.033094 C45.317768,453.76247 45.317768,458.162888 48.0466961,460.892243 C49.3554713,462.201233 51.1097778,462.925358 52.9754621,462.925358 C54.4513141,462.925358 55.8714671,462.451889 57.0410048,461.616368 L60.3825411,464.902744 C60.6052966,465.125556 60.8837715,465.236952 61.1622261,465.236952 C61.4406806,465.236952 61.7191556,465.125556 61.9419111,464.902744 C62.3874629,464.484983 62.3874629,463.760879 61.9419111,463.343118 Z M49.6339258,459.304753 C47.7960809,457.466606 47.7960809,454.458731 49.6339258,452.59274 C50.525009,451.701511 51.722386,451.200199 52.9754621,451.200199 C54.2285382,451.200199 55.4259153,451.701511 56.3169984,452.59274 C58.1548434,454.430887 58.1548434,457.438763 56.3169984,459.304753 C55.4259153,460.195982 54.2285382,460.697295 52.9754621,460.697295 C51.722386,460.697295 50.525009,460.195982 49.6339258,459.304753 L49.6339258,459.304753 Z" id="查询"></path>
        </g>
    </g>
</svg>