<?xml version="1.0" encoding="UTF-8" standalone="no"?>
<svg width="18px" height="20px" viewBox="0 0 18 20" version="1.1" xmlns="http://www.w3.org/2000/svg" xmlns:xlink="http://www.w3.org/1999/xlink">
    <!-- Generator: Sketch 43.1 (39012) - http://www.bohemiancoding.com/sketch -->
    <title>Shape</title>
    <desc>Created with Sketch.</desc>
    <defs></defs>
    <g id="Page-1" stroke="none" stroke-width="1" fill="none" fill-rule="evenodd">
        <g id="列表详情页" transform="translate(-44.000000, -727.000000)" fill-rule="nonzero" fill="#FFFFFF">
            <g id="化验" transform="translate(37.000000, 721.000000)">
                <path d="M21.3,26 L10.7,26 C9.7,26 8.9,25.6 8.3,24.8 C7.7,24 7.6,23 7.8,22.1 L10.6,13 L10,13 C8.9,13 8,12.1 8,11 L8,8 C8,6.9 8.9,6 10,6 L22,6 C23.1,6 24,6.9 24,8 L24,11 C24,12.1 23.1,13 22,13 L21.4,13 L24.2,22.1 C24.5,23 24.3,24 23.7,24.8 C23.1,25.6 22.3,26 21.3,26 Z M10,8 L10,11 L12,11 C12.3,11 12.6,11.2 12.8,11.4 C13,11.7 13,12 13,12.3 L9.8,22.7 C9.7,23 9.8,23.3 10,23.6 C10.2,23.9 10.5,24 10.8,24 L21.4,24 C21.7,24 22,23.9 22.2,23.6 C22.4,23.3 22.4,23 22.4,22.7 L19,12.3 C18.9,12 19,11.7 19.2,11.4 C19.4,11.1 19.7,11 20,11 L22,11 L22,8 L10,8 Z" id="Shape"></path>
            </g>
        </g>
    </g>
</svg>