<?xml version="1.0" encoding="UTF-8" standalone="no"?>
<svg width="37px" height="36px" viewBox="0 0 37 36" version="1.1" xmlns="http://www.w3.org/2000/svg" xmlns:xlink="http://www.w3.org/1999/xlink">
    <!-- Generator: Sketch 43.1 (39012) - http://www.bohemiancoding.com/sketch -->
    <title>Combined Shape</title>
    <desc>Created with Sketch.</desc>
    <defs></defs>
    <g id="Page-1" stroke="none" stroke-width="1" fill="none" fill-rule="evenodd">
        <g id="小程序2.0版本－疾病排行带风险提示" transform="translate(-46.000000, -601.000000)" fill="#3D83B8">
            <g id="排序" transform="translate(46.000000, 601.000000)">
                <g id="降序">
                    <path d="M34.8380899,3 C35.6834326,3 36.3687472,3.6781676 36.3687472,4.51481564 C36.3687472,5.35211732 35.6834326,6.0300838 34.8380899,6.0300838 L19.5307079,6.0300838 C18.6851629,6.0300838 18,5.35171508 18,4.51481564 C18,3.67796648 18.6849607,3 19.5307079,3 L34.8380899,3 Z M28.7149551,21 C29.5600955,21 30.2456629,21.6783687 30.2456629,22.5152682 C30.2456629,23.3521173 29.5602978,24.0302849 28.7149551,24.0302849 L19.5309101,24.0302849 C18.6855674,24.0302849 18,23.3519162 18,22.5152682 C18,21.6781676 18.6853652,21 19.5309101,21 L28.7149551,21 Z M25.6533876,30 C26.4987303,30 27.1842978,30.6783687 27.1842978,31.5150168 C27.1842978,32.3519162 26.4989326,33.0302849 25.6533876,33.0302849 L19.5307079,33.0302849 C18.6855674,33.0302849 18,32.3519162 18,31.5150168 C18,30.6781676 18.6853652,30 19.5307079,30 L25.6533876,30 Z M31.7765225,12 C32.6222697,12 33.3071798,12.6785698 33.3071798,13.5152682 C33.3071798,14.3523184 32.6218652,15.0305363 31.7765225,15.0305363 L19.5307079,15.0305363 C18.6847584,15.0305363 18,14.3519665 18,13.5152682 C18,12.678419 18.6853652,12 19.5307079,12 L31.7765225,12 Z M12.9804142,28.4561397 C13.8257063,28.4561397 14.0366501,28.9463631 13.4520546,29.5499162 L7.49541979,35.7032011 C7.12965574,36.0806983 6.53949844,36.0785363 6.17666698,35.6979218 L0.325706305,29.5583631 C-0.254136392,28.9494804 -0.0390465039,28.4561397 0.806043384,28.4561397 L5.36257147,28.4561397 L5.36257147,1.5146648 C5.36257147,0.678167598 6.04768383,0 6.89343102,0 C7.73857147,0 8.42388608,0.67796648 8.42388608,1.5146648 L8.42388608,28.4561397 L12.9804142,28.4561397 Z" id="Combined-Shape"></path>
                </g>
            </g>
        </g>
    </g>
</svg>