<?xml version="1.0" encoding="utf-8"?>
<!-- Generator: Adobe Illustrator 19.2.1, SVG Export Plug-In . SVG Version: 6.00 Build 0)  -->
<svg version="1.1" id="图层_1" xmlns="http://www.w3.org/2000/svg" xmlns:xlink="http://www.w3.org/1999/xlink" x="0px" y="0px"
	 viewBox="0 0 30 30" style="enable-background:new 0 0 30 30;" xml:space="preserve">
<style type="text/css">
	.st0{fill:#FF2F4A;}
	.st1{fill:#FFFFFF;}
</style>
<path class="st0" d="M20,30H0l15-15L30,0v20C30,25.5,25.5,30,20,30z"/>
<path class="st1" d="M16.5,25L16.5,25c-0.4-0.4-0.4-0.9,0-1.3l6.7-6.7c0.4-0.4,0.9-0.4,1.3,0l0,0c0.4,0.4,0.4,0.9,0,1.3L17.8,25
	C17.4,25.4,16.9,25.4,16.5,25z"/>
<path class="st1" d="M16.5,17.1L16.5,17.1c0.4-0.4,0.9-0.4,1.3,0l6.7,6.7c0.4,0.4,0.4,0.9,0,1.3l0,0c-0.4,0.4-0.9,0.4-1.3,0
	l-6.7-6.7C16.1,18,16.1,17.5,16.5,17.1z"/>
</svg>
